<svg width="82" height="48" viewBox="0 0 82 48" fill="none" xmlns="http://www.w3.org/2000/svg">
<g id="bush1">
<path id="bush1_2" d="M80.4 37.9L80.2 37.6L80.3 37.2C80.6 35.3 80.2 33.4 79.1 31.6C78.2 30.1 76.9 29 75.6 28.5L75.2 28.3L75 28C74.7 27.4 74.4 26.8 74 26.2L73.8 25.9V25.5C74.1 22.5 73.3 19.4 71.6 16.6C69.9 13.8 67.4 11.8 64.8 11L64.3 10.8L64.1 10.3C62.4 5.4 57.1 0.100006 49.7 0.100006C46.9 0.100006 44 0.900005 41.1 2.40001L40.7 2.60001L40.3 2.40001C38.1 1.50001 35.9 1.00001 33.9 1.00001C27 1.00001 22.7 6.1 20.8 9.1L20.5 9.6L20 9.70001C19.6 9.70001 19.2 9.6 18.8 9.6C15.8 9.6 13.1 10.8 11.1 13C8.70001 15.7 7.2 20 7.3 24.4V25L6.80001 25.3C2.60001 27.5 -1.19999 32.6 0.400005 40.7C0.900005 43.1 3 44.8 5.4 44.8H39.5L39.7 45.5C40.2 46.9 41.5 47.8 42.9 47.8H78.8C79.6 47.8 80.4 47.5 81 46.9C81.6 46.3 81.9 45.5 81.9 44.7C81.9 42.7 81.6 39.9 80.4 37.9ZM39.7 41L39.5 41.8H5.4C4.4 41.8 3.50001 41.1 3.30001 40.1C2.60001 36.7 2.9 29.6 9.3 27.5L10.4 27.1L10.3 25.9C9.9 21.7 11.1 17.4 13.2 15C14.6 13.4 16.5 12.6 18.6 12.6C19.3 12.6 20.1 12.7 20.9 12.9L22.1 13.2L22.6 12.1C22.6 12 26.4 4.10001 33.8 4.10001C35.8 4.10001 37.9 4.7 40 5.8L40.7 6.20001L41.4 5.8C44.2 4.2 46.9 3.3 49.6 3.3C55.7 3.3 60.5 8 61.5 12.6L61.7 13.6L62.7 13.7C64.9 14 67.2 15.7 68.8 18.3C69.5 19.4 70 20.5 70.3 21.7L70.7 23.4L69 22.9C68.2 22.7 67.4 22.5 66.5 22.5C65 22.5 63.5 22.9 62 23.6L61.6 23.8L61.2 23.6C60.1 23.2 59 23 58 23C54.5 23 52.1 25.3 50.8 27.1L50.4 27.5H49.9C48.1 27.5 46.5 28.2 45.3 29.5C44 30.9 43.2 33.1 43.1 35.4V35.9L42.7 36.2C40.9 37.6 40.1 39.6 39.7 41ZM42.6 44.8L42.5 43.9C42.3 41.8 42.9 39.3 45.4 38.5L46.5 38.1L46.4 36.9C46.2 34.8 46.7 32.8 47.8 31.6C48.4 30.9 49.2 30.6 50.2 30.6C50.5 30.6 50.9 30.6 51.3 30.7L52.5 30.9L53 29.8C53 29.8 54.9 25.9 58.4 25.9C59.3 25.9 60.4 26.2 61.4 26.7L62.1 27.1L62.8 26.7C64.2 25.9 65.5 25.5 66.8 25.5C70 25.5 72.1 28.1 72.5 29.9L72.7 30.9L73.7 31C74.6 31.1 75.7 32 76.5 33.1C76.9 33.7 77.8 35.5 77.1 37.3L76.8 38.1L77.4 38.8C78.4 39.9 78.8 42 78.9 43.5L79 44.6L42.6 44.8Z" fill="black"/>
<path id="leftLeaf1" d="M33.7 20C32.2 20 31.7 17.5 31.6 16.7C31.6 16.4 31.7 16.2 31.7 16H28.7C28.7 17.2 27.7 19.5 25.4 19.5C23.6 19.5 23.3 15.9 23.3 15.9L20.3 16.1C20.5 18.5 21.7 22.5 25.4 22.5C27.3 22.5 28.7 21.7 29.8 20.6C30.6 22 31.9 23.1 33.8 23.1C37.9 23.1 40.1 19.3 40.1 16.6H37.1C37 17.7 36 20 33.7 20Z" fill="black"/>
<path id="rightLeaf1" d="M67.9 37.3C67.7 37.2 67.5 36.5 67.4 36L64.4 36.2C64.5 38.2 65.7 40.3 67.9 40.3C70.6 40.3 72 37.9 72 36.1H69C69 36.2 68.8 37.3 67.9 37.3Z" fill="black"/>
</g>
</svg>
